<svg role="presentation" xmlns="http://www.w3.org/2000/svg" width="100" height="100" viewBox="0 0 100 100" preserveAspectRatio="xMidYMid">
  <rect width="5" height="13" x="47.5" y="19.5" fill="currentColor" rx="1.3" ry="1.3">
    <animate attributeName="opacity" begin="-1.2222222222222223s" dur="1.3333333333333333s" keyTimes="0;1" repeatCount="indefinite" values="1;0"/>
  </rect>
  <rect width="5" height="13" x="47.5" y="19.5" fill="currentColor" rx="1.3" ry="1.3" transform="rotate(30 50 50)">
    <animate attributeName="opacity" begin="-1.1111111111111112s" dur="1.3333333333333333s" keyTimes="0;1" repeatCount="indefinite" values="1;0"/>
  </rect>
  <rect width="5" height="13" x="47.5" y="19.5" fill="currentColor" rx="1.3" ry="1.3" transform="rotate(60 50 50)">
    <animate attributeName="opacity" begin="-1s" dur="1.3333333333333333s" keyTimes="0;1" repeatCount="indefinite" values="1;0"/>
  </rect>
  <rect width="5" height="13" x="47.5" y="19.5" fill="currentColor" rx="1.3" ry="1.3" transform="rotate(90 50 50)">
    <animate attributeName="opacity" begin="-0.8888888888888888s" dur="1.3333333333333333s" keyTimes="0;1" repeatCount="indefinite" values="1;0"/>
  </rect>
  <rect width="5" height="13" x="47.5" y="19.5" fill="currentColor" rx="1.3" ry="1.3" transform="rotate(120 50 50)">
    <animate attributeName="opacity" begin="-0.7777777777777778s" dur="1.3333333333333333s" keyTimes="0;1" repeatCount="indefinite" values="1;0"/>
  </rect>
  <rect width="5" height="13" x="47.5" y="19.5" fill="currentColor" rx="1.3" ry="1.3" transform="rotate(150 50 50)">
    <animate attributeName="opacity" begin="-0.6666666666666666s" dur="1.3333333333333333s" keyTimes="0;1" repeatCount="indefinite" values="1;0"/>
  </rect>
  <rect width="5" height="13" x="47.5" y="19.5" fill="currentColor" rx="1.3" ry="1.3" transform="rotate(180 50 50)">
    <animate attributeName="opacity" begin="-0.5555555555555556s" dur="1.3333333333333333s" keyTimes="0;1" repeatCount="indefinite" values="1;0"/>
  </rect>
  <rect width="5" height="13" x="47.5" y="19.5" fill="currentColor" rx="1.3" ry="1.3" transform="rotate(210 50 50)">
    <animate attributeName="opacity" begin="-0.4444444444444444s" dur="1.3333333333333333s" keyTimes="0;1" repeatCount="indefinite" values="1;0"/>
  </rect>
  <rect width="5" height="13" x="47.5" y="19.5" fill="currentColor" rx="1.3" ry="1.3" transform="rotate(240 50 50)">
    <animate attributeName="opacity" begin="-0.3333333333333333s" dur="1.3333333333333333s" keyTimes="0;1" repeatCount="indefinite" values="1;0"/>
  </rect>
  <rect width="5" height="13" x="47.5" y="19.5" fill="currentColor" rx="1.3" ry="1.3" transform="rotate(270 50 50)">
    <animate attributeName="opacity" begin="-0.2222222222222222s" dur="1.3333333333333333s" keyTimes="0;1" repeatCount="indefinite" values="1;0"/>
  </rect>
  <rect width="5" height="13" x="47.5" y="19.5" fill="currentColor" rx="1.3" ry="1.3" transform="rotate(300 50 50)">
    <animate attributeName="opacity" begin="-0.1111111111111111s" dur="1.3333333333333333s" keyTimes="0;1" repeatCount="indefinite" values="1;0"/>
  </rect>
  <rect width="5" height="13" x="47.5" y="19.5" fill="currentColor" rx="1.3" ry="1.3" transform="rotate(330 50 50)">
    <animate attributeName="opacity" begin="0s" dur="1.3333333333333333s" keyTimes="0;1" repeatCount="indefinite" values="1;0"/>
  </rect>
</svg>