<svg xmlns="http://www.w3.org/2000/svg" width="16" height="16" viewBox="0 0 16 16" style="vertical-align: text-bottom; width: 1rem; height: 1rem"><path fill="none" stroke="currentColor" stroke-linecap="round" stroke-linejoin="round" stroke-width="1.25" d="M.871 14.178h14.257M4.198 7.525H2.297A.475.475 0 0 0 1.822 8v6.178h2.851V8a.475.475 0 0 0-.475-.475M8.95 1.822H7.049a.475.475 0 0 0-.475.475v11.881h2.851V2.297a.475.475 0 0 0-.475-.475m4.753 2.851h-1.901a.475.475 0 0 0-.475.475v9.03h2.851v-9.03a.475.475 0 0 0-.475-.475"/></svg>