<svg xmlns="http://www.w3.org/2000/svg" width="20" height="20" viewBox="0 0 20 20" style="vertical-align: text-bottom; width: 1.25rem; height: 1.25rem"><g fill="none" stroke="currentColor" stroke-linecap="round" stroke-linejoin="round" stroke-width="1.5"><path d="M1.176 17.647h17.647M5.294 9.412H2.941a.59.59 0 0 0-.588.588v7.647h3.529V10a.59.59 0 0 0-.588-.588M11.176 2.353H8.823a.59.59 0 0 0-.588.588v14.706h3.529V2.941a.59.59 0 0 0-.588-.588M17.059 5.882h-2.353a.59.59 0 0 0-.588.588v11.176h3.529V6.47a.59.59 0 0 0-.588-.588"/></g></svg>