<svg xmlns="http://www.w3.org/2000/svg" width="20" height="20" viewBox="0 0 20 20" style="vertical-align: text-bottom; width: 1.25rem; height: 1.25rem"><g fill="none" stroke="currentColor" stroke-linecap="round" stroke-linejoin="round" stroke-width="1.5"><path d="M9.575 17.27a1.25 1.25 0 0 0 .851 0 10.7 10.7 0 0 1 6.824-.351 1.26 1.26 0 0 0 1.573-1.223V4.453a1.26 1.26 0 0 0-.878-1.198 10.9 10.9 0 0 0-7.518.157 1.26 1.26 0 0 1-.851 0 10.9 10.9 0 0 0-7.519-.157 1.26 1.26 0 0 0-.881 1.198v11.242a1.26 1.26 0 0 0 1.573 1.223 10.7 10.7 0 0 1 6.825.351ZM10 3.476v13.868"/></g></svg>