<svg xmlns="http://www.w3.org/2000/svg" width="20" height="20" viewBox="0 0 20 20" style="vertical-align: text-bottom; width: 1.25rem; height: 1.25rem"><g fill="none" stroke="currentColor" stroke-linecap="round" stroke-linejoin="round" stroke-width="1.5"><path d="m5.992 4.972-1.42-1.937c-.439-.784 0-1.859.784-1.859h9.35c.784 0 1.192 1.082.784 1.859l-1.482 1.937"/><path d="M16.47 17.647a1.075 1.075 0 0 1-.925 1.176H4.455a1.075 1.075 0 0 1-.925-1.176V9.412c0-2.596 1.655-4.706 3.694-4.706h5.553c2.039 0 3.694 2.11 3.694 4.706Z"/><path d="M6.917 14.85a4.118 3.239-45 1 0 5.823-5.823 4.118 3.239-45 1 0-5.823 5.823"/><path d="m13.278 9.819-1.875.29a1.89 1.89 0 0 0-1.569 1.749 1.875 1.875 0 0 1-1.569 1.906l-1.875.29"/></g></svg>