<svg xmlns="http://www.w3.org/2000/svg" width="32" height="20" fill="none" viewBox="0 0 32 20" style="vertical-align: text-bottom; width: 2rem; height: 1.25rem"><path stroke="currentColor" stroke-linecap="round" stroke-linejoin="round" stroke-width="1.5" d="m5.992 4.972-1.42-1.937c-.439-.784 0-1.859.784-1.859h9.35c.784 0 1.192 1.082.784 1.859l-1.482 1.937"/><path stroke="currentColor" stroke-linecap="round" stroke-linejoin="round" stroke-width="1.5" d="M16.246 18.422c.172-.22.253-.497.224-.775l.001-8.235c0-2.596-1.655-4.706-3.694-4.706H7.224c-2.039 0-3.694 2.11-3.694 4.706v8.235a1.075 1.075 0 0 0 .925 1.176h11.09c.277-.037.528-.181.7-.4"/><path stroke="currentColor" stroke-linecap="round" stroke-linejoin="round" stroke-width="1.5" d="M6.917 14.85c.298.31.67.54 1.096.68.425.138.896.181 1.383.127a4.3 4.3 0 0 0 1.456-.445 5.1 5.1 0 0 0 1.303-.947c.386-.386.708-.83.947-1.303.24-.473.39-.968.445-1.456a3.3 3.3 0 0 0-.128-1.383 2.64 2.64 0 0 0-.679-1.096 2.64 2.64 0 0 0-1.096-.68 3.3 3.3 0 0 0-1.383-.127 4.3 4.3 0 0 0-1.456.445c-.474.239-.917.56-1.303.947s-.708.829-.947 1.303c-.24.473-.39.968-.445 1.456-.054.487-.01.958.128 1.383s.37.798.679 1.096"/><path stroke="currentColor" stroke-linecap="round" stroke-linejoin="round" stroke-width="1.5" d="m13.278 9.819-1.875.29a1.89 1.89 0 0 0-1.569 1.749 1.875 1.875 0 0 1-1.569 1.906l-1.875.29"/><path stroke="currentColor" stroke-width="1.5" d="m20.876 7.574 4.077 3.882 3.968-3.882"/></svg>