<svg xmlns="http://www.w3.org/2000/svg" width="16" height="16" viewBox="0 0 16 16" style="vertical-align: text-bottom; width: 1rem; height: 1rem"><g fill="none" stroke="currentColor" stroke-linecap="round" stroke-linejoin="round" stroke-width="1.25"><path d="M3.723 15.131H1.822a.95.95 0 0 1-.95-.95V1.825a.95.95 0 0 1 .95-.95h6.736a.95.95 0 0 1 .672.278l3.721 3.72a.95.95 0 0 1 .278.672v2.933"/><path d="M13.228 5.626H9.426a.95.95 0 0 1-.95-.95V.874m-.951 9.505a1.9 1.9 0 0 0-1.901 1.901v.95a1.9 1.9 0 0 0 1.901 1.901m3.802-4.752h-.95a.95.95 0 0 0-.95.95c0 1.426 1.901 1.426 1.901 2.851a.95.95 0 0 1-.95.95h-.95m3.8-4.751v1.613a5.66 5.66 0 0 0 .95 3.14 5.66 5.66 0 0 0 .95-3.14v-1.613"/></g></svg>