<svg xmlns="http://www.w3.org/2000/svg" width="16" height="16" viewBox="0 0 16 16" style="vertical-align: text-bottom; width: 1rem; height: 1rem"><g fill="none" stroke="currentColor" stroke-linecap="round" stroke-linejoin="round" stroke-width="1.25"><path d="M.871 8a7.129 7.129 0 1 0 14.257 0A7.129 7.129 0 1 0 .871 8"/><path d="m3.564 13.576.634-3.2h.684a.94.94 0 0 0 .748-.368.91.91 0 0 0 .171-.811l-.475-1.901a.944.944 0 0 0-.919-.722H1.03m12.673-2.851h-2.585a.944.944 0 0 0-.919.722l-.475 1.901a.91.91 0 0 0 .177.811.94.94 0 0 0 .748.368h1.001l.494 3.01a.95.95 0 0 0 .925.792h1.267"/></g></svg>