<svg xmlns="http://www.w3.org/2000/svg" width="20" height="20" viewBox="0 0 20 20" style="vertical-align: text-bottom; width: 1.25rem; height: 1.25rem"><g fill="none" stroke="currentColor" stroke-linecap="round" stroke-linejoin="round" stroke-width="1.5"><path d="M1.176 10a8.824 8.824 0 1 0 17.647 0 8.824 8.824 0 1 0-17.647 0"/><path d="m4.51 16.902.784-3.961h.847a1.16 1.16 0 0 0 .925-.455 1.13 1.13 0 0 0 .212-1.004L6.69 9.129a1.17 1.17 0 0 0-1.137-.894H1.372M17.059 4.706h-3.2a1.17 1.17 0 0 0-1.137.894l-.588 2.353a1.13 1.13 0 0 0 .22 1.004 1.16 1.16 0 0 0 .925.455h1.239l.612 3.725a1.176 1.176 0 0 0 1.144.98h1.569"/></g></svg>