<svg xmlns="http://www.w3.org/2000/svg" width="20" height="20" viewBox="0 0 20 20" style="vertical-align: text-bottom; width: 1.25rem; height: 1.25rem"><g fill="none" stroke="currentColor" stroke-linecap="round" stroke-linejoin="round" stroke-width="1.5"><path d="M10 18.823A8.824 8.824 0 1 1 18.823 10"/><path d="m4.502 16.902.792-3.961h1.161M7.059 10.58 6.69 9.129a1.17 1.17 0 0 0-1.137-.894H1.372M17.059 4.706h-3.2a1.17 1.17 0 0 0-1.137.894l-.212.831M8.831 12.941a4.118 4.118 0 1 0 8.235 0 4.118 4.118 0 1 0-8.235 0M18.823 18.823l-2.957-2.973"/></g></svg>