<svg xmlns="http://www.w3.org/2000/svg" width="20" height="20" fill="none" viewBox="0 0 20 20" style="vertical-align: text-bottom; width: 1.25rem; height: 1.25rem"><g stroke="currentColor" stroke-linecap="round" stroke-linejoin="round" stroke-width="1.5"><path d="M8.157 18.628a8.825 8.825 0 0 1 .082-17.275 8.826 8.826 0 0 1 10.506 7.471"/><path d="m4.51 16.903.784-3.961h.847a1.17 1.17 0 0 0 .925-.455 1.13 1.13 0 0 0 .212-1.004L6.69 9.13a1.166 1.166 0 0 0-1.137-.894H1.372M17.059 4.706h-3.2a1.17 1.17 0 0 0-1.138.895l-.51 2.047M9.411 16.122a2.702 2.702 0 1 0 5.404 0 2.702 2.702 0 0 0-5.404 0M16.367 16.178a1.234 1.234 0 1 0 2.468 0 1.234 1.234 0 0 0-2.468 0M15.234 11.659a1.76 1.76 0 0 0 1.755 1.756 1.76 1.76 0 0 0 1.756-1.756 1.756 1.756 0 0 0-3.511 0"/></g></svg>