<svg xmlns="http://www.w3.org/2000/svg" width="48" height="48" fill="none" viewBox="0 0 48 48" style="vertical-align: text-bottom; width: 3rem; height: 3rem"><g stroke="currentColor" stroke-linecap="round" stroke-linejoin="round" stroke-width="2"><path d="M19.661 44.309a20.767 20.767 0 0 1-9.772-35.55 20.77 20.77 0 0 1 21.138-4.305 20.77 20.77 0 0 1 13.557 16.778"/><path d="m11.077 40.248 1.846-9.323h1.994a2.738 2.738 0 0 0 2.178-1.071 2.657 2.657 0 0 0 .499-2.363l-1.385-5.539a2.75 2.75 0 0 0-2.677-2.104h-9.84M40.615 11.54h-7.532a2.753 2.753 0 0 0-2.677 2.105l-1.2 4.818M22.615 38.411a6.357 6.357 0 0 0 6.359 6.36 6.359 6.359 0 1 0-6.359-6.36M38.987 38.543a2.905 2.905 0 0 0 2.902 2.902 2.902 2.902 0 1 0-2.902-2.902M36.321 27.906a4.132 4.132 0 1 0 8.264.001 4.132 4.132 0 0 0-8.264-.001"/></g></svg>