<svg xmlns="http://www.w3.org/2000/svg" width="20" height="20" viewBox="0 0 20 20" style="vertical-align: text-bottom; width: 1.25rem; height: 1.25rem"><g fill="none" stroke="currentColor" stroke-linecap="round" stroke-linejoin="round" stroke-width="1.5"><path d="M1.208 11.168v7.059M12.972 17.059a2.353 2.353 0 0 0-2.353-2.353H7.647a2.353 2.353 0 0 0-2.353-2.353H1.208v4.706ZM5.325 14.698h2.353M10 7.647S8.8 9.702 7.059 9.412c-3.53-.589-2.942-5.295-4.118-7.059A7.84 7.84 0 0 1 10 2.941c1.796 1.169 1.796 2.933 0 4.706M13.921 9.364s.784 1.42 2.016 1.224c2.447-.408 2.039-3.671 2.855-4.902a5.44 5.44 0 0 0-4.871.392c-1.255.839-1.255 2.063 0 3.286"/><path d="M7.647 5.294s2.941.588 4.118 6.471a9.8 9.8 0 0 1 2.941-3.538"/></g></svg>