<svg xmlns="http://www.w3.org/2000/svg" width="20" height="20" viewBox="0 0 20 20" style="vertical-align: text-bottom; width: 1.25rem; height: 1.25rem"><g fill="none" stroke="currentColor" stroke-width="1.5"><path stroke-linecap="round" stroke-linejoin="round" d="M11.687 15.681v1.965a1.177 1.177 0 0 0 2.353 0v-1.827l1.731-1.548.638 3.563a1.176 1.176 0 0 0 1.16.988 1 1 0 0 0 .189-.015 1.176 1.176 0 0 0 .973-1.349l-.98-5.686a1.2 1.2 0 0 0-.084-.276q.001-.012-.006-.024l-1.765-3.725a1.18 1.18 0 0 0-1.02-.688 1.14 1.14 0 0 0-1.076.591l-1.447 2.539-2.135 1.619a1.178 1.178 0 0 0 1.424 1.878l2.325-1.765a1.2 1.2 0 0 0 .31-.355l.429-.751.456.845"/><path stroke-miterlimit="10" d="M13.608 5.736a1.96 1.96 0 0 1-2.704-1.815v-.784a1.961 1.961 0 0 1 3.922 0v.784a1.96 1.96 0 0 1-1.218 1.815"/><path stroke-linecap="round" stroke-linejoin="round" d="m9.07 3.329 7.912.004M1.646 15.49l8.097-2.699M2.823 13.921s.392 2.745 1.961 3.922M1.254 18.627a7.5 7.5 0 0 1 3.413-.666 7.5 7.5 0 0 1 3.41.666"/></g></svg>