<svg xmlns="http://www.w3.org/2000/svg" width="20" height="20" viewBox="0 0 20 20" style="vertical-align: text-bottom; width: 1.25rem; height: 1.25rem"><g fill="none" stroke="currentColor" stroke-linecap="round" stroke-linejoin="round" stroke-width="1.5"><path d="M2.353 1.174h1.176s1.176 0 1.176 1.176v1.176s0 1.176-1.176 1.176H2.353s-1.176 0-1.176-1.176V2.35s0-1.176 1.176-1.176M9.412 1.174h1.176s1.176 0 1.176 1.176v1.176s0 1.176-1.176 1.176H9.412s-1.176 0-1.176-1.176V2.35s0-1.176 1.176-1.176M16.47 1.174h1.176s1.176 0 1.176 1.176v1.176s0 1.176-1.176 1.176H16.47s-1.176 0-1.176-1.176V2.35s0-1.176 1.176-1.176M2.353 8.233h1.176s1.176 0 1.176 1.176v1.176s0 1.176-1.176 1.176H2.353s-1.176 0-1.176-1.176V9.409s0-1.176 1.176-1.176M9.412 8.233h1.176s1.176 0 1.176 1.176v1.176s0 1.176-1.176 1.176H9.412s-1.176 0-1.176-1.176V9.409s0-1.176 1.176-1.176M16.47 8.233h1.176s1.176 0 1.176 1.176v1.176s0 1.176-1.176 1.176H16.47s-1.176 0-1.176-1.176V9.409s0-1.176 1.176-1.176M2.353 15.292h1.176s1.176 0 1.176 1.176v1.176s0 1.176-1.176 1.176H2.353s-1.176 0-1.176-1.176v-1.176s0-1.176 1.176-1.176M9.412 15.292h1.176s1.176 0 1.176 1.176v1.176s0 1.176-1.176 1.176H9.412s-1.176 0-1.176-1.176v-1.176s0-1.176 1.176-1.176M16.47 15.292h1.176s1.176 0 1.176 1.176v1.176s0 1.176-1.176 1.176H16.47s-1.176 0-1.176-1.176v-1.176s0-1.176 1.176-1.176"/></g></svg>