<svg xmlns="http://www.w3.org/2000/svg" width="48" height="48" fill="none" viewBox="0 0 48 48" style="vertical-align: text-bottom; width: 3rem; height: 3rem"><g stroke="currentColor" stroke-width="2"><path d="M20.367 33.861H7.012a3.695 3.695 0 0 0-3.695 3.692v3.492a3.695 3.695 0 0 0 3.695 3.693h13.355a3.694 3.694 0 0 0 3.694-3.692v-3.493a3.694 3.694 0 0 0-3.694-3.692ZM40.884 33.861h-7.511a3.695 3.695 0 0 0-3.695 3.692v3.492a3.695 3.695 0 0 0 3.695 3.693h7.511a3.694 3.694 0 0 0 3.694-3.693v-3.492a3.694 3.694 0 0 0-3.694-3.692ZM12.039 3.335H7.012a3.695 3.695 0 0 0-3.695 3.692v16.007a3.695 3.695 0 0 0 3.695 3.693h5.027a3.694 3.694 0 0 0 3.694-3.693V7.027a3.694 3.694 0 0 0-3.694-3.692ZM40.884 3.335H25.35a3.695 3.695 0 0 0-3.695 3.692v16.007a3.695 3.695 0 0 0 3.695 3.693h15.534a3.694 3.694 0 0 0 3.694-3.693V7.027a3.694 3.694 0 0 0-3.694-3.692Z"/></g></svg>