<svg xmlns="http://www.w3.org/2000/svg" width="20" height="20" fill="none" viewBox="0 0 20 20" style="vertical-align: text-bottom; width: 1.25rem; height: 1.25rem"><g stroke="currentColor" stroke-width="1.5"><path d="M8.456 14.189H2.783a1.57 1.57 0 0 0-1.57 1.569v1.483a1.57 1.57 0 0 0 1.57 1.569h5.673a1.57 1.57 0 0 0 1.57-1.569v-1.483a1.57 1.57 0 0 0-1.57-1.569ZM17.173 14.189h-3.191a1.57 1.57 0 0 0-1.57 1.569v1.483a1.57 1.57 0 0 0 1.57 1.569h3.191c.866 0 1.569-.702 1.569-1.569v-1.483c0-.867-.703-1.569-1.569-1.569ZM4.918 1.22H2.783a1.57 1.57 0 0 0-1.57 1.569V9.59c0 .866.703 1.568 1.57 1.568h2.135c.867 0 1.57-.702 1.57-1.568V2.789a1.57 1.57 0 0 0-1.57-1.569ZM17.173 1.22h-6.6a1.57 1.57 0 0 0-1.569 1.569V9.59c0 .866.703 1.568 1.569 1.568h6.6c.866 0 1.569-.702 1.569-1.568V2.789a1.57 1.57 0 0 0-1.569-1.569Z"/></g></svg>