<svg xmlns="http://www.w3.org/2000/svg" width="20" height="20" viewBox="0 0 20 20" style="vertical-align: text-bottom; width: 1.25rem; height: 1.25rem"><g fill="none" stroke="currentColor" stroke-linecap="round" stroke-linejoin="round" stroke-width="1.5"><path d="M4.703 18.822H2.35a1.176 1.176 0 0 1-1.176-1.176V2.352A1.176 1.176 0 0 1 2.35 1.176h8.336a1.18 1.18 0 0 1 .832.345l4.605 4.605a1.18 1.18 0 0 1 .344.832v3.63"/><path d="M16.467 7.057h-4.706a1.176 1.176 0 0 1-1.176-1.176V1.175M7.055 18.822V12.94M7.055 12.939h.592a1.765 1.765 0 0 1 0 3.529h-.588M11.761 18.822a2.353 2.353 0 0 0 2.353-2.353v-1.176a2.353 2.353 0 0 0-2.353-2.353ZM16.467 18.822v-4.706a1.176 1.176 0 0 1 1.176-1.176h1.176M16.467 16.469h1.765"/></g></svg>