<svg xmlns="http://www.w3.org/2000/svg" width="20" height="20" viewBox="0 0 20 20" style="vertical-align: text-bottom; width: 1.25rem; height: 1.25rem"><g fill="none" stroke="currentColor" stroke-linecap="round" stroke-linejoin="round" stroke-width="1.5"><path d="M1.176 18.823h17.647M5.294 13.333H2.941a.596.596 0 0 0-.588.588v4.902h3.529v-4.902a.596.596 0 0 0-.588-.588M11.176 10.196H8.823a.596.596 0 0 0-.588.588v8.039h3.529v-8.039a.596.596 0 0 0-.588-.588M17.059 7.059h-2.353a.596.596 0 0 0-.588.588v11.176h3.529V7.647a.596.596 0 0 0-.588-.588M3.866 7.835 16.47 2.11M15.537 4.612l.933-2.502-2.494-.934"/></g></svg>