<svg xmlns="http://www.w3.org/2000/svg" width="20" height="20" fill="none" viewBox="0 0 20 20" style="vertical-align: text-bottom; width: 1.25rem; height: 1.25rem"><g stroke="currentColor" stroke-width="1.5"><path stroke-linecap="round" stroke-linejoin="round" d="M10 8.823a3.529 3.529 0 1 0 .002-7.058 3.529 3.529 0 0 0-.003 7.058ZM10 8.823v6.471M12.353 12.474c3.402.362 5.882 1.49 5.882 2.824 0 1.624-3.686 2.941-8.235 2.941s-8.236-1.321-8.236-2.945c0-1.333 2.47-2.453 5.86-2.817"/><path d="M9.706 4.706a.294.294 0 0 1 0-.588M9.706 4.706a.294.294 0 0 0 0-.588"/></g></svg>