<svg xmlns="http://www.w3.org/2000/svg" width="35" height="20" fill="none" viewBox="0 0 35 20" style="vertical-align: text-bottom; width: 2.1875rem; height: 1.25rem"><path stroke="#000" stroke-linecap="round" stroke-linejoin="round" stroke-width="1.5" d="M13.529 5.294a3.529 3.529 0 1 1-7.058 0 3.529 3.529 0 0 1 7.058 0M10 8.823v6.471M12.353 12.474c3.402.362 5.882 1.49 5.882 2.824 0 1.624-3.686 2.941-8.235 2.941s-8.236-1.321-8.236-2.945c0-1.333 2.47-2.453 5.86-2.817"/><path stroke="#000" stroke-width="1.5" d="M9.706 4.706a.294.294 0 0 1 0-.588M9.706 4.706a.294.294 0 0 0 0-.588M20.876 7.574l4.077 3.882 3.968-3.882"/></svg>