<svg xmlns="http://www.w3.org/2000/svg" width="16" height="16" viewBox="0 0 16 16" style="vertical-align: text-bottom; width: 1rem; height: 1rem"><g fill="none" stroke="currentColor" stroke-linecap="round" stroke-linejoin="round" stroke-width="1.25"><path d="M9.908 4.42c0 1.954-1.905 3.538-1.905 3.538S6.099 6.373 6.099 4.42 8.003.881 8.003.881s1.905 1.584 1.905 3.538Zm3.28 8.776C11.218 15.169 8 15.139 8 15.139s-.03-3.222 1.94-5.191 5.191-1.939 5.191-1.939.026 3.223-1.943 5.187"/><path d="M2.809 13.196C4.778 15.169 8 15.139 8 15.139s.03-3.222-1.94-5.191S.87 8.009.87 8.009s-.03 3.223 1.939 5.187m5.194-5.238v7.181"/></g></svg>