<svg xmlns="http://www.w3.org/2000/svg" width="16" height="16" fill="none" viewBox="0 0 16 16">
  <path fill="currentColor" fill-rule="evenodd" d="M2.591 2C1.694 2 1 2.694 1 3.591c0 .19.024.392.102.595.08.206.201.382.356.537h.001L5.005 8.27v5.127a.625.625 0 0 0 1.061.447l2.42-2.358-.884-.884-1.347 1.313V8.01a.625.625 0 0 0-.183-.442L2.344 3.841a.3.3 0 0 1-.075-.103.408.408 0 0 1-.019-.147c0-.207.134-.341.341-.341h8.839c.208 0 .342.135.342.341a.41.41 0 0 1-.019.148.293.293 0 0 1-.074.101L8.51 7.01l.884.883 3.17-3.17a1.53 1.53 0 0 0 .357-.536c.078-.204.102-.406.102-.596 0-.898-.694-1.591-1.592-1.591H2.591Z" clip-rule="evenodd"/>
  <path stroke="currentColor" stroke-linecap="round" stroke-linejoin="round" stroke-width="1.25" d="m9.595 13.595 4-4M13.595 13.595l-4-4"/>
</svg>