<svg xmlns="http://www.w3.org/2000/svg" width="16" height="16" viewBox="0 0 16 16" style="vertical-align: text-bottom; width: 1rem; height: 1rem"><g fill="none" stroke="currentColor" stroke-linecap="round" stroke-linejoin="round" stroke-width="1.25"><path d="M.871 8a7.129 7.129 0 1 0 14.257 0A7.129 7.129 0 1 0 .871 8m5.376.969 1.71 1.709"/><path d="m2.583 12.634 5.373-5.373a.805.805 0 0 1 1.141 0l.57.57a.806.806 0 0 1 0 1.141l-5.216 5.212M8.475 2.772v1.901m.951-.95H7.525M4.673 5.148v1.901m.951-.95H3.723m8.554 0v1.86m.951-.91h-1.86"/></g></svg>