<svg xmlns="http://www.w3.org/2000/svg" width="16" height="16" fill="none" viewBox="0 0 16 16" style="vertical-align: text-bottom; width: 1rem; height: 1rem"><g stroke="currentColor" stroke-width="1.25"><path stroke-linecap="round" stroke-linejoin="round" d="M8.832 1.838a.947.947 0 0 0-1.315-.359.95.95 0 0 0-.349.359L.99 13.244a.94.94 0 0 0 .014.942.96.96 0 0 0 .818.467h12.356a.948.948 0 0 0 .832-1.409zM8 9.901V5.624"/><path d="M8 12.277a.238.238 0 1 1 0-.475m0 .475a.238.238 0 1 0 0-.475"/></g></svg>