<svg xmlns="http://www.w3.org/2000/svg" width="48" height="48" fill="none" viewBox="0 0 48 48" style="vertical-align: text-bottom; width: 3rem; height: 3rem"><g stroke="currentColor" stroke-width="2"><path d="M42.786 3.442c-13.241.444-23.76 5.5-37.61 5.925-1.019.032-1.848.855-1.848 1.875v4.523c0 1.019.829 1.849 1.848 1.817 13.85-.425 24.369-5.481 37.61-5.925 1.019-.035 1.848-.858 1.848-1.878V5.257c0-1.02-.829-1.85-1.848-1.815ZM42.786 17.157c-13.241.446-23.76 5.516-37.61 5.943-1.019.031-1.848.855-1.848 1.874v1.825c0 1.02.829 1.849 1.848 1.818 13.85-.427 24.369-5.497 37.61-5.943 1.019-.034 1.848-.858 1.848-1.877v-1.825c0-1.02-.829-1.849-1.848-1.815ZM42.786 39.453c-13.241-.416-23.76-5.144-37.609-5.542-1.02-.029-1.849.8-1.849 1.819v1.648c0 1.02.829 1.844 1.849 1.873 13.849.398 24.368 5.126 37.609 5.542 1.019.032 1.848-.798 1.848-1.817v-1.648c0-1.02-.829-1.843-1.848-1.875Z"/></g></svg>