<svg xmlns="http://www.w3.org/2000/svg" width="20" height="20" fill="none" viewBox="0 0 20 20" style="vertical-align: text-bottom; width: 1.25rem; height: 1.25rem"><g stroke="currentColor" stroke-width="1.5"><path d="M17.981 1.266c-5.625.189-10.094 2.337-15.978 2.517a.805.805 0 0 0-.785.797v1.921c0 .433.352.786.785.772 5.884-.18 10.353-2.328 15.978-2.517a.806.806 0 0 0 .785-.798V2.037a.765.765 0 0 0-.785-.771ZM17.981 7.093c-5.625.189-10.094 2.343-15.978 2.524a.805.805 0 0 0-.785.797v.775c0 .433.352.786.785.772 5.884-.181 10.353-2.335 15.978-2.525a.805.805 0 0 0 .785-.797v-.775a.765.765 0 0 0-.785-.771ZM17.981 16.565c-5.625-.177-10.094-2.186-15.978-2.355a.77.77 0 0 0-.785.773v.7c0 .433.352.784.785.796 5.884.169 10.353 2.178 15.978 2.354a.765.765 0 0 0 .785-.772v-.7a.804.804 0 0 0-.785-.796Z"/></g></svg>