<svg xmlns="http://www.w3.org/2000/svg" width="20" height="20" viewBox="0 0 20 20" style="vertical-align: text-bottom; width: 1.25rem; height: 1.25rem"><g fill="none" stroke="currentColor" stroke-linecap="round" stroke-linejoin="round" stroke-width="1.5"><path d="M7.647 14.117a2.353 2.353 0 1 0 4.706 0 2.353 2.353 0 1 0-4.706 0M10 11.764v1.765"/><path d="M18.182 17.294a1.176 1.176 0 0 1-1.123 1.529H2.941a1.176 1.176 0 0 1-1.123-1.529l2.206-7.059a1.18 1.18 0 0 1 1.122-.824h9.706a1.18 1.18 0 0 1 1.123.824ZM2.941 1.176a.588.588 0 0 0-.543.815A8.235 8.235 0 0 0 10 7.059a8.235 8.235 0 0 0 7.599-5.068.588.588 0 0 0-.54-.815ZM7.647 6.717v2.694M12.353 6.717v2.694"/></g></svg>