<svg xmlns="http://www.w3.org/2000/svg" width="16" height="16" viewBox="0 0 16 16" style="vertical-align: text-bottom; width: 1rem; height: 1rem"><path fill="none" stroke="currentColor" stroke-linecap="round" stroke-linejoin="round" stroke-width="1.25" d="m4.614 4.226 2.577.796L9.067 3.47a.288.288 0 0 1 .482.218l-.075 2.749 2.339 1.292a.302.302 0 0 1-.068.544l-2.557.915-.915 2.557a.302.302 0 0 1-.544.068L6.436 9.474l-2.749.075a.288.288 0 0 1-.218-.482l1.553-1.876-.796-2.577a.317.317 0 0 1 .388-.388m4.573 4.961 5.942 5.942M11.802 1.822h1.901m-.951-.951v1.901M1.822 13.228h1.901m-.951-.951v1.901M6.099 2.297V.871M.871 6.574h1.426"/></svg>