<svg xmlns="http://www.w3.org/2000/svg" width="20" height="20" viewBox="0 0 20 20" style="vertical-align: text-bottom; width: 1.25rem; height: 1.25rem"><g fill="none" stroke="currentColor" stroke-linecap="round" stroke-linejoin="round" stroke-width="1.5"><path d="M1.216 10.785V2.549a1.177 1.177 0 0 1 1.176-1.177h8.337a1.18 1.18 0 0 1 .832.344l4.603 4.605a1.18 1.18 0 0 1 .346.832v3.24"/><path d="M16.511 7.255h-4.706a1.177 1.177 0 0 1-1.177-1.176V1.372M6.314 12.746v4.78a1.103 1.103 0 0 0 1.103 1.103h1.839m4.706-5.883h-1.578a1.363 1.363 0 0 0-.609 2.583l1.434.717a1.363 1.363 0 0 1-.611 2.583H11.02m4.823 0 2.941-5.883m0 5.883-2.941-5.883M1.412 18.629l2.941-5.883m0 5.883-2.941-5.883"/></g></svg>