<svg xmlns="http://www.w3.org/2000/svg" width="16" height="16" viewBox="0 0 16 16" style="vertical-align: text-bottom; width: 1rem; height: 1rem"><g fill="none" stroke="currentColor" stroke-linecap="round" stroke-linejoin="round" stroke-width="1.25"><path d="M.903 8.634V1.98a.95.95 0 0 1 .951-.95H8.59a.95.95 0 0 1 .672.278l3.719 3.721a.95.95 0 0 1 .279.672v2.616"/><path d="M13.26 5.783H9.458a.95.95 0 0 1-.95-.951V1.03m-3.486 9.189v3.862a.89.89 0 0 0 .891.89h1.485m3.803-4.752H9.926a1.101 1.101 0 0 0-.492 2.087l1.158.579a1.101 1.101 0 0 1-.493 2.086H8.824m3.896 0 2.376-4.753m.001 4.753-2.376-4.753m-11.66 4.753 2.376-4.753m.001 4.753-2.376-4.753"/></g></svg>